<?xml version="1.0" standalone="no"?>
<!DOCTYPE svg PUBLIC "-//W3C//DTD SVG 20010904//EN"
 "http://www.w3.org/TR/2001/REC-SVG-20010904/DTD/svg10.dtd">
<svg version="1.0" xmlns="http://www.w3.org/2000/svg"
 width="128.000000pt" height="128.000000pt" viewBox="0 0 128.000000 128.000000"
 preserveAspectRatio="xMidYMid meet">
<metadata>
Created by potrace 1.13, written by Peter Selinger 2001-2015
</metadata>
<g transform="translate(0.000000,128.000000) scale(0.080000,-0.080000)"
fill="#000000" stroke="none">
<path d="M979 1469 c-6 -12 -8 -37 -5 -58 17 -98 17 -98 -14 -38 -27 51 -34
58 -57 55 -14 -2 -31 -10 -36 -19 -15 -23 9 -101 48 -159 l32 -47 -34 -12
c-43 -16 -57 -41 -38 -69 12 -16 22 -19 54 -15 50 7 146 -37 155 -70 19 -72
-6 -127 -57 -127 -28 1 -39 10 -86 76 -97 133 -253 287 -361 357 l-25 16 3
-144 c5 -178 -12 -368 -37 -436 -11 -27 -36 -70 -55 -94 -55 -66 -60 -88 -40
-166 20 -77 15 -106 -26 -153 -35 -40 -39 -80 -9 -96 11 -7 27 -9 35 -6 11 4
14 -7 14 -54 0 -65 15 -90 56 -90 32 0 54 11 135 71 36 27 86 58 110 69 95 43
184 14 257 -82 48 -64 81 -79 121 -57 34 19 47 49 61 134 20 126 -9 302 -75
450 -32 74 -32 127 1 200 22 47 26 67 21 109 -5 54 4 82 33 103 34 24 44 68
30 134 -11 53 -11 67 5 120 17 56 17 61 1 77 -27 27 -67 -1 -88 -63 -18 -54
-21 -51 -38 30 -6 27 -16 55 -22 62 -16 20 -56 16 -69 -8z m-251 -526 c-4 -24
-60 -54 -78 -43 -12 7 -11 13 10 34 27 30 73 36 68 9z m224 -36 c48 -76 116
-221 150 -318 31 -89 32 -101 30 -219 -2 -139 -10 -178 -35 -194 -15 -9 -27
-1 -75 51 -64 69 -75 76 -153 93 -82 18 -141 -2 -258 -90 -51 -38 -97 -70
-101 -70 -35 0 -37 89 -4 265 28 146 76 360 84 369 4 4 22 -2 39 -15 46 -34
124 -37 180 -7 59 31 85 67 88 126 1 26 2 48 2 50 1 1 7 2 14 2 6 0 24 -19 39
-43z m-465 -337 c-13 -63 -27 -63 -27 -1 0 25 27 77 36 69 2 -3 -2 -33 -9 -68z"/>
</g>
</svg>
